<svg xmlns="http://www.w3.org/2000/svg" viewBox="0 0 164 164" class="icon icon-170"><path fill="#21263C" d="M74.9 96.7H39.5c-.9 0-1.7.6-1.9 1.3l-2.3 7.6c-2.6 8.4 3.9 15.2 14.5 15.2h1.5c10.6 0 20.9-6.8 23-15.3l1.9-7.6c.1-.6-.4-1.2-1.3-1.2zm11.7 7c1.5 1 2.3 2.6 2.4 4.3.1 6.5.3 23.6.6 42.9 3.7-.1 7.4-.2 11.2-.2.3-19.2.5-36.3.6-42.8 0-1.7.9-3.4 2.4-4.3 1.5-1 2.4-2.6 2.4-4.4v-3.9h-22v3.9c0 1.9.9 3.6 2.4 4.5z"></path><path fill="#2D334F" d="M86.6 103.7c1.5 1 2.3 2.6 2.4 4.3.1 6.5.3 23.6.6 42.9 1.8 0 3.5-.1 5.3-.1L97 95.4H84.2v3.9c0 1.8.9 3.5 2.4 4.4z"></path><path fill="#21263C" d="M28.7 69.2l-.5-2.2c-.1-.6-.5-.9-.9-.7l-3.9 2.2c-1.2.7-2.2 2.4-2.6 4.5l-1 5.6c-.2.9.4 1.8.9 1.5l3.9-2.2 5.2-3 17.7-10c.4-.2.6-.9.4-1.5l-.4-2.4c-.1-.6-.5-.9-.9-.7l-17 9.7c-.4.2-.8-.2-.9-.8zM71.2 4.5c.8 1.1 1.6 2.2 2.4 3.4-.3.1-.9.4-1.4 1.1-.9 1-1 2.1-1 2.4 1.2.5 2.3 1 3.5 1.6 3.3-1.6 5.6-4.1 5.5-5.9-.1-2.3-3.8-4.3-9-2.6zm10.9 5.7c.1-.1.2-.5.1-.8-.2-.4-.8-.8-1.3-.7-.7.1-1.1 1.3-1.3 2.6-.1.5-.8 4.2-1.4 5.8l3.9-6.9z"></path><path fill="#FD9134" d="M66.5 9.1c1.8.9 3.6 1.9 5.3 2.8-.3.4-.8 1-1 2-.4 1.6.2 2.9.4 3.3l5.5.2c3.1-3.3 4.2-7.4 2.9-9.4-1.7-2.6-7.7-3.2-13.1 1.1z"></path><path fill="#FDC234" d="M66.5 9.1c1.8.9 3.6 1.9 5.3 2.8-.5 2.1-.2 3.2.4 3.9 1.2 1.5 4.5 1.6 4.5 1.6 3.1-3.3 4.2-7.4 2.9-9.4-1.7-2.6-7.7-3.2-13.1 1.1z"></path><path fill="#F7525A" d="M54.8 95.4h77.6c1.7 0 3.1-1.4 3.1-3.1V66.9c0-10.6-8.6-19.3-19.3-19.3H57.6"></path><path fill="#21263C" d="M76.5 95.4H37.9V66.9c0-10.6 8.6-19.3 19.3-19.3 10.6 0 19.3 8.6 19.3 19.3v28.5z"></path><path fill="#2D334F" d="M76.5 95.4H50V82.8c0-8.6 7-15.6 15.6-15.6h10.9v28.2z"></path><path fill="#21263C" d="M126.8 92.8h-18.3c-.3 0-.5-.2-.5-.5s.2-.5.5-.5h18.3c.3 0 .5.2.5.5s-.2.5-.5.5zm8.6 0H131c-.3 0-.5-.2-.5-.5s.2-.5.5-.5h4.5c1.4 0 2.6-1.2 2.6-2.6V74.9c0-.3.2-.5.5-.5s.5.2.5.5v14.3c0 2-1.7 3.6-3.7 3.6z"></path><path fill="#22C784" d="M106.3 151.1c1.7.2 2.7 0 3.9.1.9 0 2.3.1 3.9.4.7-3.7.8-6.9.7-9.4-.2.5-.5 1.2-1 2.1-2.4 4-5.5 4.9-9 6.6.2 0 .8.1 1.5.2z"></path><path fill="#2D334F" d="M106.2 150.9h1.7c.4-2 .7-4 .9-6.2.7-6.9.3-12.9-.4-17.8-3.7 4.1-8.4 10.1-12.4 18.3-.9 2-1.8 3.9-2.5 5.8 4.3-.2 8.5-.2 12.7-.1z"></path><path fill="#22C784" d="M102.3 150.8c.1-1.8.2-3.6.2-5.5-.1-6.4-1.1-11.9-2.2-16.4-3 4.2-6.7 10.2-9.5 18.1-.5 1.3-.9 2.6-1.2 3.9 4.1 0 8.4-.1 12.7-.1z"></path><path fill="#2D334F" d="M88.1 151.2c.4-.1.8-.1 1.2-.2h.1c-1.6-2.3-3.3-4.6-4.4-7.3-.6.9-2.3 3.7-3.4 7.5 2.1-.2 4.3-.1 6.5 0z"></path><path fill="#21263C" d="M138.6 66.9c-.3 0-.5-.2-.5-.5v-2.6c0-.3.2-.5.5-.5s.5.2.5.5v2.6c0 .3-.3.5-.5.5zM113 152.2c5.1.7 10 1.6 15 2.9 5.3 1.3 10.6 3.1 15.7 5.1.2.1.5 0 .6-.2.1-.2 0-.4-.2-.5-5.1-2-10.5-3.8-15.8-5.1-10.6-2.7-21.5-4-32.7-4-14.6 0-29.6 2.3-44.9 7-.2.1-.3.3-.3.5.1.2.3.3.5.3 19.1-5.8 37.9-8 56-6.4l6.1.4zM51.4 72.5c-.1 0-.2 0-.3-.1-4.5-2.9-7-6-7.5-9.2-.7-4.8 5.2-8.8 10.3-12.4 4.2-2.9 8.2-5.6 7.8-8.1-.6-3.3-8.8-4.5-16.1-5.6-.9-.1-1.8-.3-2.7-.4-.3 0-.5-.3-.4-.6 0-.3.3-.5.6-.4.9.1 1.8.3 2.7.4 8 1.1 16.2 2.3 16.9 6.4.6 3.1-3.5 5.9-8.2 9.1C49.6 55 44 58.8 44.6 63c.4 3 2.8 5.8 7 8.5.2.1.3.5.2.7-.1.2-.3.3-.4.3zM39 36c-4.9-.9-7.1-2.1-7.4-3.8-.4-2.5 2.5-7 33.6-17.7.3-.1.5 0 .6.3.1.3 0 .5-.3.6-29.4 10.3-33.3 14.8-32.9 16.7.3 1.8 5 2.7 6.6 3 .3.1.4.3.4.6-.1.2-.3.3-.6.3zm27 0c-.1 0-.2 0-.3-.1-.3-.2-1.7-.9-7.8-2.2-.3-.1-.4-.3-.4-.6.1-.3.3-.4.6-.4 7.1 1.5 7.9 2.1 8.2 2.3.2.2.3.5.1.7-.1.3-.2.3-.4.3zm-12-3h-.1c-1.3-.3-2.7-.6-4-.8-.3-.1-.5-.3-.4-.6s.3-.4.6-.4c1.4.3 2.7.5 4.1.8.3.1.4.3.4.6-.1.2-.3.4-.6.4z"></path></svg>